; NON-PLATED HOLES START AT T1
; THROUGH (PLATED) HOLES START AT T100
M48
INCH
T100C0.038000
T101C0.035000
%
T100
X012856Y004732
X004855Y000733
X013856Y005732
X006855Y000733
X013856Y006732
X000855Y004732
X006855Y005732
X013856Y003732
X002855Y000733
X006855Y004732
X007855Y001732
X006845Y006732
X000855Y008732
X013856Y004732
X000855Y005732
X000855Y002732
X006855Y008732
X005855Y000733
X006855Y002732
X006855Y001732
X000855Y003732
X006855Y007732
X012856Y005732
X000855Y000733
X006855Y003732
X012856Y003732
X000855Y007732
X012856Y007732
X000855Y006732
X012856Y006732
X013856Y008732
X000855Y001732
X003855Y000733
X001855Y000733
X013856Y007732
T101
X007855Y006732
X007855Y007732
X011856Y008732
X011856Y005732
X007855Y005732
X007855Y008732
X011856Y007732
X011856Y006732
T00
M30
